#Comment line ignore any data following # character 
#Hierarchical Translation and Rotation (.htr) file 
[Header]	
#Header keywords are followed by a single value 
FileType HTR		#Single word string
DataType HTRS		#Translation followed by rotation and scale data
FileVersion 1		#integer
NumSegments 84		#integer
NumFrames 2		#integer
DataFrameRate 30		#integer, data frame rate in this file
EulerRotationOrder ZYX
CalibrationUnits mm
RotationUnits Degrees
GlobalAxisofGravity Y
BoneLengthAxis Y
ScaleFactor 1.00
[SegmentNames&Hierarchy]
#CHILD	PARENT
MASTER GLOBAL
root MASTER
chest root
L_mid_tent01 root
R_mid_tent01 root
spine01 root
Bip01_Neck chest
L_humerus chest
R_humerus chest
weapon_bone chest
Bip01_Head Bip01_Neck
eye_left_bone Bip01_Head
eye_right_bone Bip01_Head
L_forearm L_humerus
L_front_hand L_forearm
L_weapon_bone L_forearm
L_front_hand01_01 L_front_hand
L_front_hand02_01 L_front_hand
L_front_hand03_01 L_front_hand
L_front_hand01_02 L_front_hand01_01
L_front_hand02_02 L_front_hand02_01
L_front_hand03_02 L_front_hand03_01
R_forearm R_humerus
R_front_hand R_forearm
R_weapon_bone R_forearm
R_front_hand01_01 R_front_hand
R_front_hand02_01 R_front_hand
R_front_hand03_01 R_front_hand
R_front_hand01_02 R_front_hand01_01
R_front_hand02_02 R_front_hand02_01
R_front_hand03_02 R_front_hand03_01
null_rope01_connect L_mid_tent01
Rope1_Seg01 null_rope01_connect
Rope1_Seg02 Rope1_Seg01
Rope1_Seg03 Rope1_Seg02
Rope1_Seg04 Rope1_Seg03
Rope1_Seg05 Rope1_Seg04
Rope1_Seg06 Rope1_Seg05
Rope1_Seg07 Rope1_Seg06
Rope1_Seg09 Rope1_Seg07
L_mid_hand01 Rope1_Seg09
L_mid_hand02 Rope1_Seg09
L_mid_hand03 Rope1_Seg09
null_rope02_connect R_mid_tent01
Rope2_Seg01 null_rope02_connect
Rope2_Seg02 Rope2_Seg01
Rope2_Seg03 Rope2_Seg02
Rope2_Seg04 Rope2_Seg03
Rope2_Seg05 Rope2_Seg04
Rope2_Seg06 Rope2_Seg05
Rope2_Seg07 Rope2_Seg06
Rope2_Seg09 Rope2_Seg07
R_mid_hand01 Rope2_Seg09
R_mid_hand02 Rope2_Seg09
R_mid_hand03 Rope2_Seg09
spine02 spine01
spine03 spine02
pelvis spine03
null_rope03_connect pelvis
null_rope04_connect pelvis
Rope3_Seg01 null_rope03_connect
Rope3_Seg02 Rope3_Seg01
Rope3_Seg03 Rope3_Seg02
Rope3_Seg04 Rope3_Seg03
Rope3_Seg05 Rope3_Seg04
Rope3_Seg06 Rope3_Seg05
Rope3_Seg07 Rope3_Seg06
Rope3_Seg08 Rope3_Seg07
Rope3_Seg09 Rope3_Seg08
R_rear_hand01 Rope3_Seg09
R_rear_hand02 Rope3_Seg09
R_rear_hand03 Rope3_Seg09
Rope4_Seg01 null_rope04_connect
Rope4_Seg02 Rope4_Seg01
Rope4_Seg03 Rope4_Seg02
Rope4_Seg04 Rope4_Seg03
Rope4_Seg05 Rope4_Seg04
Rope4_Seg06 Rope4_Seg05
Rope4_Seg07 Rope4_Seg06
Rope4_Seg08 Rope4_Seg07
Rope4_Seg09 Rope4_Seg08
L_rear_hand01 Rope4_Seg09
L_rear_hand02 Rope4_Seg09
L_rear_hand03 Rope4_Seg09
[BasePosition]
#SegmentName Tx, Ty, Tz, Rx, Ry, Rz, BoneLength
MASTER 0.000000 0.000000 0.000000 -90.000000 0.000000 0.000000 10.000000 
root 0.000000 0.000000 0.000000 0.000000 0.000000 0.000000 10.000000 
chest 0.000000 0.000000 0.000000 0.000000 0.000000 0.000000 10.000000 
L_mid_tent01 0.000000 0.000000 0.000000 0.000000 0.000000 0.000000 10.000000 
R_mid_tent01 0.000000 0.000000 0.000000 0.000000 0.000000 0.000000 10.000000 
spine01 0.000000 0.000000 0.000000 0.000000 0.000000 0.000000 10.000000 
Bip01_Neck 0.000000 0.000000 0.000000 0.000000 0.000000 0.000000 10.000000 
L_humerus 0.000000 0.000000 0.000000 0.000000 0.000000 0.000000 10.000000 
R_humerus 0.000000 0.000000 0.000000 0.000000 0.000000 0.000000 10.000000 
weapon_bone 0.000000 0.000000 0.000000 0.000000 0.000000 0.000000 10.000000 
Bip01_Head 0.000000 0.000000 0.000000 0.000000 0.000000 0.000000 10.000000 
eye_left_bone 0.000000 0.000000 0.000000 0.000000 0.000000 0.000000 10.000000 
eye_right_bone 0.000000 0.000000 0.000000 0.000000 0.000000 0.000000 10.000000 
L_forearm 0.000000 0.000000 0.000000 0.000000 0.000000 0.000000 10.000000 
L_front_hand 0.000000 0.000000 0.000000 0.000000 0.000000 0.000000 10.000000 
L_weapon_bone 0.000000 0.000000 0.000000 0.000000 0.000000 0.000000 10.000000 
L_front_hand01_01 0.000000 0.000000 0.000000 0.000000 0.000000 0.000000 10.000000 
L_front_hand02_01 0.000000 0.000000 0.000000 0.000000 0.000000 0.000000 10.000000 
L_front_hand03_01 0.000000 0.000000 0.000000 0.000000 0.000000 0.000000 10.000000 
L_front_hand01_02 0.000000 0.000000 0.000000 0.000000 0.000000 0.000000 10.000000 
L_front_hand02_02 0.000000 0.000000 0.000000 0.000000 0.000000 0.000000 10.000000 
L_front_hand03_02 0.000000 0.000000 0.000000 0.000000 0.000000 0.000000 10.000000 
R_forearm 0.000000 0.000000 0.000000 0.000000 0.000000 0.000000 10.000000 
R_front_hand 0.000000 0.000000 0.000000 0.000000 0.000000 0.000000 10.000000 
R_weapon_bone 0.000000 0.000000 0.000000 0.000000 0.000000 0.000000 10.000000 
R_front_hand01_01 0.000000 0.000000 0.000000 0.000000 0.000000 0.000000 10.000000 
R_front_hand02_01 0.000000 0.000000 0.000000 0.000000 0.000000 0.000000 10.000000 
R_front_hand03_01 0.000000 0.000000 0.000000 0.000000 0.000000 0.000000 10.000000 
R_front_hand01_02 0.000000 0.000000 0.000000 0.000000 0.000000 0.000000 10.000000 
R_front_hand02_02 0.000000 0.000000 0.000000 0.000000 0.000000 0.000000 10.000000 
R_front_hand03_02 0.000000 0.000000 0.000000 0.000000 0.000000 0.000000 10.000000 
null_rope01_connect 0.000000 0.000000 0.000000 0.000000 0.000000 0.000000 10.000000 
Rope1_Seg01 0.000000 0.000000 0.000000 0.000000 0.000000 0.000000 10.000000 
Rope1_Seg02 0.000000 0.000000 0.000000 0.000000 0.000000 0.000000 10.000000 
Rope1_Seg03 0.000000 0.000000 0.000000 0.000000 0.000000 0.000000 10.000000 
Rope1_Seg04 0.000000 0.000000 0.000000 0.000000 0.000000 0.000000 10.000000 
Rope1_Seg05 0.000000 0.000000 0.000000 0.000000 0.000000 0.000000 10.000000 
Rope1_Seg06 0.000000 0.000000 0.000000 0.000000 0.000000 0.000000 10.000000 
Rope1_Seg07 0.000000 0.000000 0.000000 0.000000 0.000000 0.000000 10.000000 
Rope1_Seg09 0.000000 0.000000 0.000000 0.000000 0.000000 0.000000 10.000000 
L_mid_hand01 0.000000 0.000000 0.000000 0.000000 0.000000 0.000000 10.000000 
L_mid_hand02 0.000000 0.000000 0.000000 0.000000 0.000000 0.000000 10.000000 
L_mid_hand03 0.000000 0.000000 0.000000 0.000000 0.000000 0.000000 10.000000 
null_rope02_connect 0.000000 0.000000 0.000000 0.000000 0.000000 0.000000 10.000000 
Rope2_Seg01 0.000000 0.000000 0.000000 0.000000 0.000000 0.000000 10.000000 
Rope2_Seg02 0.000000 0.000000 0.000000 0.000000 0.000000 0.000000 10.000000 
Rope2_Seg03 0.000000 0.000000 0.000000 0.000000 0.000000 0.000000 10.000000 
Rope2_Seg04 0.000000 0.000000 0.000000 0.000000 0.000000 0.000000 10.000000 
Rope2_Seg05 0.000000 0.000000 0.000000 0.000000 0.000000 0.000000 10.000000 
Rope2_Seg06 0.000000 0.000000 0.000000 0.000000 0.000000 0.000000 10.000000 
Rope2_Seg07 0.000000 0.000000 0.000000 0.000000 0.000000 0.000000 10.000000 
Rope2_Seg09 0.000000 0.000000 0.000000 0.000000 0.000000 0.000000 10.000000 
R_mid_hand01 0.000000 0.000000 0.000000 0.000000 0.000000 0.000000 10.000000 
R_mid_hand02 0.000000 0.000000 0.000000 0.000000 0.000000 0.000000 10.000000 
R_mid_hand03 0.000000 0.000000 0.000000 0.000000 0.000000 0.000000 10.000000 
spine02 0.000000 0.000000 0.000000 0.000000 0.000000 0.000000 10.000000 
spine03 0.000000 0.000000 0.000000 0.000000 0.000000 0.000000 10.000000 
pelvis 0.000000 0.000000 0.000000 0.000000 0.000000 0.000000 10.000000 
null_rope03_connect 0.000000 0.000000 0.000000 0.000000 0.000000 0.000000 10.000000 
null_rope04_connect 0.000000 0.000000 0.000000 0.000000 0.000000 0.000000 10.000000 
Rope3_Seg01 0.000000 0.000000 0.000000 0.000000 0.000000 0.000000 10.000000 
Rope3_Seg02 0.000000 0.000000 0.000000 0.000000 0.000000 0.000000 10.000000 
Rope3_Seg03 0.000000 0.000000 0.000000 0.000000 0.000000 0.000000 10.000000 
Rope3_Seg04 0.000000 0.000000 0.000000 0.000000 0.000000 0.000000 10.000000 
Rope3_Seg05 0.000000 0.000000 0.000000 0.000000 0.000000 0.000000 10.000000 
Rope3_Seg06 0.000000 0.000000 0.000000 0.000000 0.000000 0.000000 10.000000 
Rope3_Seg07 0.000000 0.000000 0.000000 0.000000 0.000000 0.000000 10.000000 
Rope3_Seg08 0.000000 0.000000 0.000000 0.000000 0.000000 0.000000 10.000000 
Rope3_Seg09 0.000000 0.000000 0.000000 0.000000 0.000000 0.000000 10.000000 
R_rear_hand01 0.000000 0.000000 0.000000 0.000000 0.000000 0.000000 10.000000 
R_rear_hand02 0.000000 0.000000 0.000000 0.000000 0.000000 0.000000 10.000000 
R_rear_hand03 0.000000 0.000000 0.000000 0.000000 0.000000 0.000000 10.000000 
Rope4_Seg01 0.000000 0.000000 0.000000 0.000000 0.000000 0.000000 10.000000 
Rope4_Seg02 0.000000 0.000000 0.000000 0.000000 0.000000 0.000000 10.000000 
Rope4_Seg03 0.000000 0.000000 0.000000 0.000000 0.000000 0.000000 10.000000 
Rope4_Seg04 0.000000 0.000000 0.000000 0.000000 0.000000 0.000000 10.000000 
Rope4_Seg05 0.000000 0.000000 0.000000 0.000000 0.000000 0.000000 10.000000 
Rope4_Seg06 0.000000 0.000000 0.000000 0.000000 0.000000 0.000000 10.000000 
Rope4_Seg07 0.000000 0.000000 0.000000 0.000000 0.000000 0.000000 10.000000 
Rope4_Seg08 0.000000 0.000000 0.000000 0.000000 0.000000 0.000000 10.000000 
Rope4_Seg09 0.000000 0.000000 0.000000 0.000000 0.000000 0.000000 10.000000 
L_rear_hand01 0.000000 0.000000 0.000000 0.000000 0.000000 0.000000 10.000000 
L_rear_hand02 0.000000 0.000000 0.000000 0.000000 0.000000 0.000000 10.000000 
L_rear_hand03 0.000000 0.000000 0.000000 0.000000 0.000000 0.000000 10.000000 
#Beginning of Data. Separated by tabs
#Fr	Tx	Ty	Tz	Rx	Ry	Rz	SF
[MASTER]
3 -0.000020 206.765472 528.913208 0.001660 0.001660 0.001660 567.891846
4 -0.000046 375.903748 932.440735 0.001660 0.001660 0.001660 1005.360291
[root]
3 -18.868948 -54.681587 1670.326416 -80.999702 -22.399860 -90.301514 1671.327881
4 -21.688946 -44.981720 1671.295166 -72.081291 -17.962442 -90.430611 1672.041016
[chest]
3 -84.512650 -34.090519 0.000000 -1.340126 0.386233 176.783401 91.129311
4 -84.512650 -34.090519 0.000000 1.401952 -0.591938 172.759995 91.129311
[L_mid_tent01]
3 27.299482 22.177544 -249.918030 0.128846 34.801586 73.680084 252.380905
4 27.299475 22.177601 -249.918060 -2.539131 33.606194 67.818748 252.380951
[R_mid_tent01]
3 23.228794 24.509907 226.238495 -157.834686 -52.400299 54.538074 228.744751
4 23.228794 24.509907 226.238495 -130.517151 -47.132347 32.768528 228.744751
[spine01]
3 -0.361383 -0.195265 0.000000 0.751858 0.328278 17.588507 0.410763
4 -0.361383 -0.195265 0.000000 0.735250 0.318801 17.719801 0.410763
[Bip01_Neck]
3 165.484543 71.581718 0.000119 175.896118 1.177290 24.871183 180.302734
4 165.484543 71.581718 0.000119 175.896118 1.177290 24.871185 180.302734
[L_humerus]
3 -13.983130 -135.272980 -120.471481 -175.172806 77.030045 -85.076164 181.680161
4 -13.983130 -135.272980 -120.471481 -174.710251 77.892868 -84.614258 181.680161
[R_humerus]
3 -13.983309 -135.273102 125.287651 -134.708023 -63.534367 -139.613632 184.909012
4 -13.983309 -135.273102 125.287651 -125.348793 -62.152557 -146.660950 184.909012
[weapon_bone]
3 235.964890 -300.705902 0.000000 0.000000 -89.951546 -128.212341 382.234833
4 235.964890 -300.705902 0.000000 0.000000 -89.951546 -128.212341 382.234833
[Bip01_Head]
3 253.408844 137.668015 -7.205697 2.792722 5.843888 -62.455189 288.479553
4 252.627045 140.492340 -7.392598 3.383910 5.844101 -62.457859 289.159424
[eye_left_bone]
3 -24.626970 125.451866 -64.772606 0.000000 -90.000000 -99.840431 143.318359
4 -24.626970 125.451866 -64.772606 0.000000 -90.000000 -99.840431 143.318359
[eye_right_bone]
3 -24.626970 125.451866 64.327362 0.000000 -89.960434 80.159386 143.117676
4 -24.626970 125.451866 64.327362 0.000000 -89.960434 80.159386 143.117676
[L_forearm]
3 322.776093 0.000000 -0.000119 0.000178 -0.002340 -98.707298 322.776093
4 322.776093 0.000000 -0.000119 0.000186 -0.002340 -99.085930 322.776093
[L_front_hand]
3 241.149185 -0.042021 -3.300071 -178.667953 -1.835447 -27.422350 241.171753
4 241.149185 -0.042021 -3.300071 -178.667953 -1.835447 -27.422344 241.171753
[L_weapon_bone]
3 156.183838 0.000000 0.000000 0.000014 0.000007 0.000001 156.183838
4 156.183838 0.000000 0.000000 0.000014 0.000007 0.000001 156.183838
[L_front_hand01_01]
3 86.095154 20.947098 -0.655860 -0.366594 -0.477154 75.385574 88.609184
4 86.095154 20.947098 -0.655860 -0.366594 -0.477154 75.385574 88.609184
[L_front_hand02_01]
3 86.935165 -11.437475 24.513514 154.403519 -59.888931 -61.371990 91.046425
4 86.935165 -11.437475 24.513514 154.403488 -59.888916 -61.371967 91.046425
[L_front_hand03_01]
3 86.637497 -14.123976 -20.424902 -153.913849 58.118130 -62.702866 90.126129
4 86.637497 -14.123976 -20.424902 -153.913849 58.118130 -62.702866 90.126129
[L_front_hand01_02]
3 71.020905 -0.000179 0.000030 0.000334 -0.002323 -106.379700 71.020905
4 71.020905 -0.000179 0.000030 0.000334 -0.002323 -106.379684 71.020905
[L_front_hand02_02]
3 71.020927 -0.000119 0.000060 0.000334 -0.002323 -106.379700 71.020927
4 71.020927 -0.000119 0.000060 0.000334 -0.002323 -106.379684 71.020927
[L_front_hand03_02]
3 71.020905 -0.000060 0.000060 0.000334 -0.002323 -106.379700 71.020905
4 71.020905 -0.000060 0.000060 0.000334 -0.002323 -106.379684 71.020905
[R_forearm]
3 322.776428 -0.000060 0.000030 0.209510 0.012475 -94.278358 322.776428
4 322.776428 -0.000060 0.000030 0.212539 0.020049 -96.405724 322.776428
[R_front_hand]
3 238.847015 -0.006795 2.210259 -3.311403 0.238849 -46.637703 238.857239
4 238.847015 -0.006795 2.210259 -5.286515 -0.324320 -43.863811 238.857239
[R_weapon_bone]
3 155.664093 0.002503 -0.000030 0.003487 0.001180 -90.988930 155.664078
4 155.664093 0.002503 -0.000030 0.003487 0.001180 -90.988930 155.664078
[R_front_hand01_01]
3 87.624611 14.231146 22.918642 -116.960213 3.496675 -1.324139 91.683487
4 87.624611 14.231146 22.918642 -116.960213 3.496675 -1.324139 91.683487
[R_front_hand02_01]
3 89.356956 14.367283 -19.491137 118.419647 -4.257089 0.609827 92.579636
4 89.356956 14.367283 -19.491137 118.419647 -4.257089 0.609827 92.579636
[R_front_hand03_01]
3 87.286232 -22.307278 -0.143439 -0.387970 -0.231462 4.232001 90.091743
4 87.286232 -22.307278 -0.143439 -0.387970 -0.231462 4.232001 90.091743
[R_front_hand01_02]
3 71.020905 0.000060 0.000119 0.001777 0.001534 8.377220 71.020905
4 71.020905 0.000060 0.000119 0.001777 0.001534 8.377220 71.020905
[R_front_hand02_02]
3 71.020844 -0.000030 -0.000119 0.001777 0.001534 8.377220 71.020836
4 71.020844 -0.000030 -0.000119 0.001777 0.001534 8.377220 71.020836
[R_front_hand03_02]
3 71.020905 0.000000 0.000030 0.001777 0.001534 8.377220 71.020905
4 71.020905 0.000000 0.000030 0.001777 0.001534 8.377220 71.020905
[null_rope01_connect]
3 328.732483 0.000000 -0.000238 -135.646561 -63.504921 173.567596 328.732483
4 328.732483 0.000000 -0.000238 -127.041885 -72.287445 164.793137 328.732483
[Rope1_Seg01]
3 0.000000 0.000000 0.000000 124.855820 60.324196 149.072098 0.000000
4 0.000000 0.000000 0.000000 146.229431 70.713371 167.431503 0.000000
[Rope1_Seg02]
3 139.999863 -0.000179 0.000000 -0.314515 -8.496672 7.991185 139.999863
4 139.999863 -0.000179 0.000000 -1.374644 -7.771688 11.207211 139.999863
[Rope1_Seg03]
3 139.999924 0.000060 -0.000060 -0.590097 -10.193609 7.905763 139.999924
4 139.999924 0.000060 -0.000060 -0.940913 -8.696087 10.987115 139.999924
[Rope1_Seg04]
3 139.999924 -0.000060 -0.000119 -1.293571 -11.120646 11.471346 139.999924
4 139.999924 -0.000060 -0.000119 -0.592295 -7.657999 10.629266 139.999924
[Rope1_Seg05]
3 139.999832 0.000119 -0.000060 1.705491 -7.769731 16.166861 139.999832
4 139.999832 0.000119 -0.000060 1.136167 -4.521537 12.455013 139.999832
[Rope1_Seg06]
3 139.999954 0.000119 -0.000060 2.205659 -3.855321 8.363874 139.999954
4 139.999954 0.000119 -0.000060 1.883524 -2.812994 8.825852 139.999954
[Rope1_Seg07]
3 139.999985 0.000060 0.000000 1.759365 -2.131385 4.783906 139.999985
4 139.999985 0.000060 0.000000 1.597917 -1.813617 5.523878 139.999985
[Rope1_Seg09]
3 121.602913 0.000119 -0.000089 -89.793175 -1.359789 0.847147 121.602913
4 121.602913 0.000119 -0.000089 -89.793175 -1.359789 0.847147 121.602913
[L_mid_hand01]
3 103.859421 1.038730 8.195221 114.520287 -53.310486 -20.623234 104.187431
4 103.859421 1.038730 8.195221 114.520287 -53.310486 -20.623234 104.187431
[L_mid_hand02]
3 105.572853 -4.139662 -10.864139 -155.067673 38.166626 -52.448818 106.211075
4 105.572853 -4.139662 -10.864139 -155.067673 38.166618 -52.448807 106.211075
[L_mid_hand03]
3 104.641464 17.579376 -3.913581 -10.970129 15.317459 57.626942 106.179977
4 104.641464 17.579376 -3.913581 -10.970129 15.317463 57.626957 106.179977
[null_rope02_connect]
3 328.732849 0.000179 -0.000119 -150.192474 25.645523 -17.919994 328.732849
4 328.732849 0.000179 -0.000119 -162.740051 8.439780 -35.400757 328.732849
[Rope2_Seg01]
3 -0.000033 0.000111 0.000008 -65.133705 30.984579 14.053337 0.000116
4 -0.000030 0.000091 0.000012 -50.412796 11.788198 -1.889610 0.000096
[Rope2_Seg02]
3 139.999741 -0.000060 -0.000119 -9.763053 -17.353172 24.473072 139.999756
4 139.999741 -0.000060 -0.000119 -21.673183 -8.241138 36.089653 139.999756
[Rope2_Seg03]
3 140.000107 0.000030 0.000000 -1.531028 -7.622863 12.625424 140.000107
4 140.000107 0.000030 0.000000 -4.944318 -10.322810 19.997492 140.000107
[Rope2_Seg04]
3 139.999802 0.000000 -0.000060 -0.586094 -12.493907 7.045515 139.999802
4 139.999802 0.000000 -0.000060 -0.583204 -9.076739 9.853565 139.999802
[Rope2_Seg05]
3 139.999985 -0.000060 0.000119 -1.929785 -17.391680 5.843355 139.999985
4 139.999985 -0.000060 0.000119 -0.080137 -12.557849 9.524695 139.999985
[Rope2_Seg06]
3 139.999893 -0.000030 -0.000119 -1.016384 -9.642375 3.532557 139.999893
4 139.999893 -0.000030 -0.000119 1.076953 -8.795692 7.141170 139.999893
[Rope2_Seg07]
3 139.999893 0.000060 -0.000060 -0.624374 -5.717330 2.122678 139.999893
4 139.999893 0.000060 -0.000060 1.434118 -4.991673 4.529742 139.999893
[Rope2_Seg09]
3 121.338966 0.000089 -0.000060 66.044922 -0.639230 -1.445770 121.338966
4 121.338966 0.000089 -0.000060 69.150055 -0.499436 -1.477459 121.338966
[R_mid_hand01]
3 104.680779 11.144459 -10.335981 -40.147198 27.799562 31.669579 105.778534
4 104.680779 11.144459 -10.335981 -16.212313 45.237183 70.462517 105.778534
[R_mid_hand02]
3 104.070427 2.443552 8.231699 72.094734 -36.208256 11.340107 104.424065
4 104.070427 2.443552 8.231699 49.067799 -67.749626 39.286053 104.424065
[R_mid_hand03]
3 106.028137 -11.221827 -5.996406 -168.570969 10.999981 -40.628181 106.788818
4 106.028137 -11.221827 -5.996406 -177.101028 15.551016 -76.585335 106.788818
[spine02]
3 129.756927 0.001550 0.000119 -0.249673 -4.988350 -4.349806 129.756927
4 129.756927 0.001550 0.000119 -0.246610 -5.592684 -4.349698 129.756927
[spine03]
3 78.556480 0.095723 -5.458696 0.452256 4.897486 -2.372627 78.745964
4 78.556572 0.095596 -5.457798 0.481258 4.898585 -1.982704 78.745995
[pelvis]
3 169.435242 0.051022 0.000000 -0.040650 -0.506026 2.410647 169.435257
4 169.435242 0.051022 0.000000 -0.043084 -0.507868 2.727273 169.435257
[null_rope03_connect]
3 -1.257226 -2.466202 137.391083 20.675056 -79.988457 78.507149 137.418976
4 -1.257226 -2.466202 137.391083 18.550104 -70.959206 75.477020 137.418976
[null_rope04_connect]
3 -1.259640 -2.480268 -137.844437 20.675056 -79.988457 78.507149 137.872513
4 -1.259640 -2.480268 -137.844437 18.550104 -70.959206 75.477020 137.872513
[Rope3_Seg01]
3 -0.000028 -0.000069 0.000000 -135.666931 -43.063255 -76.448967 0.000075
4 -0.000028 -0.000085 0.000000 -129.246140 -41.618721 -86.047089 0.000089
[Rope3_Seg02]
3 139.999924 -0.000119 0.000060 -0.525389 -13.593319 -34.845188 139.999924
4 139.999924 -0.000119 0.000060 3.506799 -16.504889 -32.941601 139.999924
[Rope3_Seg03]
3 139.999924 -0.000119 0.000119 -127.937378 -16.880995 -53.669247 139.999924
4 139.999924 -0.000119 0.000119 -139.750580 -23.867723 -50.867851 139.999924
[Rope3_Seg04]
3 139.999924 0.000119 0.000000 -10.064501 27.314713 19.667568 139.999924
4 139.999924 0.000119 0.000000 -13.493811 18.306192 14.112523 139.999924
[Rope3_Seg05]
3 139.999924 -0.000238 0.000060 2.411198 17.545971 22.948435 139.999924
4 139.999924 -0.000238 0.000060 4.220037 16.353912 26.897326 139.999924
[Rope3_Seg06]
3 139.999893 -0.000119 -0.000060 0.643488 5.761844 7.124950 139.999893
4 139.999893 -0.000119 -0.000060 1.857864 10.159848 15.873281 139.999893
[Rope3_Seg07]
3 139.999771 0.000060 -0.000119 0.594222 3.041016 3.674262 139.999771
4 139.999771 0.000060 -0.000119 0.716538 4.204039 6.103374 139.999771
[Rope3_Seg08]
3 139.999985 -0.000060 0.000000 0.575441 1.693262 2.003622 139.999985
4 139.999985 -0.000060 0.000000 0.593140 2.236553 3.174580 139.999985
[Rope3_Seg09]
3 90.185997 -0.000179 -0.000060 88.766632 -1.362648 -0.846896 90.185997
4 90.185997 -0.000179 -0.000060 87.602776 -1.357487 -0.847289 90.185997
[R_rear_hand01]
3 103.366196 -6.073594 -10.757982 -156.049316 6.070421 -2.795877 104.101845
4 103.366196 -6.073594 -10.757982 -156.303818 7.047817 -5.016659 104.101845
[R_rear_hand02]
3 100.509819 12.039542 -7.992327 -38.708427 1.958057 5.461192 101.543350
4 100.509819 12.039542 -7.992327 -38.618435 3.465873 7.345703 101.543350
[R_rear_hand03]
3 101.539970 5.215704 5.435467 84.307625 -2.361042 4.099039 101.819031
4 101.539970 5.215704 5.435467 84.293983 -4.764470 4.337550 101.819031
[Rope4_Seg01]
3 -0.000018 -0.000105 -0.000153 46.403580 -2.141669 -121.915245 0.000186
4 -0.000018 -0.000120 -0.000153 39.470844 12.104445 -130.121613 0.000195
[Rope4_Seg02]
3 139.999985 0.000060 0.000119 -18.471367 -29.317276 -44.801937 139.999985
4 139.999985 0.000060 0.000119 -19.807911 -6.080213 -38.145546 139.999985
[Rope4_Seg03]
3 139.999924 0.000000 -0.000238 -69.027229 -6.400115 -32.354107 139.999924
4 139.999924 0.000000 -0.000238 -21.606825 3.861081 -22.990360 139.999924
[Rope4_Seg04]
3 139.999985 0.000000 0.000119 -23.714069 29.144674 -9.531558 139.999985
4 139.999985 0.000000 0.000119 -17.960720 11.219851 -16.562471 139.999985
[Rope4_Seg05]
3 139.999802 -0.000060 -0.000119 -2.883928 29.134048 4.165673 139.999802
4 139.999802 -0.000060 -0.000119 -20.829594 26.976660 -22.482790 139.999802
[Rope4_Seg06]
3 139.999924 0.000000 0.000060 -0.025478 9.365681 1.607370 139.999924
4 139.999924 0.000000 0.000060 -3.736053 17.493494 -7.175570 139.999924
[Rope4_Seg07]
3 139.999802 0.000000 0.000000 0.218426 5.086008 0.867806 139.999802
4 139.999802 0.000000 0.000000 -0.217635 7.308378 -2.579561 139.999802
[Rope4_Seg08]
3 139.999924 0.000000 0.000119 -1.357146 2.811969 0.472988 139.999924
4 139.999924 0.000000 0.000119 -1.388647 3.804845 -1.331184 139.999924
[Rope4_Seg09]
3 90.185791 0.000060 0.000060 -135.617828 2.228885 0.850567 90.185791
4 90.185791 0.000060 0.000060 -135.617828 2.228885 0.850567 90.185791
[L_rear_hand01]
3 101.696655 -8.392275 -7.654577 -19.915020 -33.950905 119.950104 102.329041
4 101.696655 -8.392275 -7.654577 -19.915024 -33.950905 119.950104 102.329041
[L_rear_hand02]
3 102.726799 -1.568258 5.773216 77.862221 61.878510 165.399200 102.900848
4 102.726799 -1.568258 5.773216 77.862236 61.878510 165.399200 102.900848
[L_rear_hand03]
3 104.552910 9.721220 -10.420293 -173.099182 -23.740309 -117.327896 105.519653
4 104.552910 9.721220 -10.420293 -173.099182 -23.740307 -117.327896 105.519653
